M48
; DRILL file {KiCad (5.1.4)-1} date 30/08/2021 13:20:45
; FORMAT={-:-/ absolute / inch / decimal}
; #@! TF.CreationDate,2021-08-30T13:20:45+02:00
; #@! TF.GenerationSoftware,Kicad,Pcbnew,(5.1.4)-1
; #@! TF.FileFunction,Plated,1,2,PTH
FMAT,2
INCH
T1C0.0157
T2C0.0256
T3C0.0409
T4C0.0579
%
G90
G05
T1
X5.305Y-6.7212
X5.46Y-6.78
X5.54Y-6.6
X5.54Y-6.755
X5.605Y-7.4712
X5.81Y-8.2212
X5.865Y-8.485
X5.925Y-6.7212
X5.9255Y-7.355
X5.9255Y-7.52
X5.965Y-8.385
X5.99Y-8.2212
X6.285Y-7.4712
X6.575Y-8.5
X6.685Y-8.39
X7.015Y-8.9712
X7.1212Y-8.9712
X7.155Y-8.86
X7.185Y-9.16
X7.2434Y-9.1584
X7.7995Y-9.5342
X7.8Y-9.4949
X7.8002Y-9.5736
X7.905Y-9.175
X7.955Y-9.4
X8.03Y-9.09
X8.0419Y-9.705
X8.215Y-9.755
X8.2558Y-9.755
X8.2952Y-9.7549
X8.3346Y-9.7555
X8.3748Y-9.7552
X8.475Y-9.075
X8.64Y-9.5636
X8.655Y-9.13
X8.655Y-9.21
X8.655Y-9.6861
X8.68Y-9.52
X8.68Y-9.565
X8.795Y-9.245
X8.91Y-9.07
X10.27Y-9.07
X10.695Y-9.07
X11.17Y-9.675
X11.45Y-9.455
X11.4598Y-9.0248
X11.61Y-8.32
X11.7548Y-7.0902
X11.8Y-7.525
X12.125Y-9.675
X12.3943Y-9.7593
X13.3318Y-9.765
X14.2693Y-9.7607
X15.115Y-9.805
T3
X13.1062Y-6.6688
X13.2062Y-6.6688
X11.7937Y-8.9187
X11.8937Y-8.9187
X10.8562Y-6.6688
X10.9562Y-6.6688
X11.0437Y-8.9187
X11.1437Y-8.9187
X8.2312Y-7.4188
X8.3312Y-7.4188
X7.8563Y-6.6688
X7.9562Y-6.6688
X14.4187Y-8.1687
X14.5187Y-8.1687
X6.1688Y-8.1687
X6.2687Y-8.1687
X6.3563Y-6.6688
X6.4562Y-6.6688
X12.45Y-9.6687
X12.55Y-9.6687
X10.2937Y-8.9187
X10.3937Y-8.9187
X10.6687Y-8.1687
X10.7687Y-8.1687
X4.8563Y-6.6688
X4.9562Y-6.6688
X14.325Y-9.6687
X14.425Y-9.6687
X12.9187Y-8.1687
X13.0187Y-8.1687
X8.4187Y-8.1687
X8.5187Y-8.1687
X7.4813Y-7.4188
X7.5812Y-7.4188
X12.1687Y-8.1687
X12.2687Y-8.1687
X15.2625Y-7.7938
X15.3625Y-7.7938
X9.7312Y-7.4188
X9.8312Y-7.4188
X9.3562Y-6.6688
X9.4562Y-6.6688
X13.2937Y-8.9187
X13.3937Y-8.9187
X8.9812Y-7.4188
X9.0812Y-7.4188
X5.0438Y-7.4188
X5.1437Y-7.4188
X4.95Y-9.6687
X5.05Y-9.6687
X7.2938Y-8.9187
X7.3937Y-8.9187
X5.1375Y-8.1687
X5.2375Y-8.1687
X14.9812Y-6.6688
X15.0812Y-6.6688
X8.7937Y-8.9187
X8.8937Y-8.9187
X10.4812Y-7.4188
X10.5812Y-7.4188
X7.1063Y-6.6688
X7.2062Y-6.6688
X9.6375Y-9.6687
X9.7375Y-9.6687
X13.6687Y-8.1687
X13.7687Y-8.1687
X9.9187Y-8.1687
X10.0187Y-8.1687
X5.9813Y-7.4188
X6.0812Y-7.4188
X5.8875Y-9.6687
X5.9875Y-9.6687
X8.0437Y-8.9187
X8.1437Y-8.9187
X7.6688Y-8.1687
X7.7687Y-8.1687
X13.8562Y-6.6688
X13.9562Y-6.6688
X4.95Y-8.9187
X5.05Y-8.9187
X13.4812Y-7.4188
X13.5812Y-7.4188
X10.1062Y-6.6688
X10.2062Y-6.6688
X14.7Y-8.9187
X14.8Y-8.9187
X11.2312Y-7.4188
X11.3312Y-7.4188
X8.6062Y-6.6688
X8.7062Y-6.6688
X9.5437Y-8.9187
X9.6437Y-8.9187
X14.2312Y-7.4188
X14.3312Y-7.4188
X12.3562Y-6.6688
X12.4562Y-6.6688
X15.2625Y-9.6687
X15.3625Y-9.6687
X6.5438Y-8.9187
X6.6437Y-8.9187
X12.7312Y-7.4188
X12.8312Y-7.4188
X5.6063Y-6.6688
X5.7062Y-6.6688
X6.825Y-9.6687
X6.925Y-9.6687
X12.5437Y-8.9187
X12.6437Y-8.9187
X9.1687Y-8.1687
X9.2687Y-8.1687
X6.7313Y-7.4188
X6.8312Y-7.4188
X13.3875Y-9.6687
X13.4875Y-9.6687
X5.7938Y-8.9187
X5.8937Y-8.9187
X6.9188Y-8.1687
X7.0187Y-8.1687
X11.6062Y-6.6688
X11.7062Y-6.6688
X11.4187Y-8.1687
X11.5187Y-8.1687
X11.9812Y-7.4188
X12.0812Y-7.4188
T4
X10.0062Y-6.3687
X10.2562Y-6.2687
X14.6Y-8.6188
X14.85Y-8.5187
X11.1312Y-7.1187
X11.3812Y-7.0187
X8.5062Y-6.3687
X8.7562Y-6.2687
X9.4437Y-8.6188
X9.6937Y-8.5187
X14.1312Y-7.1187
X14.3812Y-7.0187
X12.2562Y-6.3687
X12.5062Y-6.2687
X15.1625Y-9.3688
X15.4125Y-9.2687
X6.4437Y-8.6188
X6.6937Y-8.5187
X12.6312Y-7.1187
X12.8812Y-7.0187
X5.5062Y-6.3687
X5.7562Y-6.2687
X6.725Y-9.3688
X6.975Y-9.2687
X12.4437Y-8.6188
X12.6937Y-8.5187
X9.0687Y-7.8687
X9.3187Y-7.7687
X6.6312Y-7.1187
X6.8812Y-7.0187
X13.2875Y-9.3688
X13.5375Y-9.2687
X5.6937Y-8.6188
X5.9437Y-8.5187
X6.8187Y-7.8687
X7.0687Y-7.7687
X11.5062Y-6.3687
X11.7562Y-6.2687
X11.3187Y-7.8687
X11.5687Y-7.7687
X11.8812Y-7.1187
X12.1312Y-7.0187
X13.0062Y-6.3687
X13.2562Y-6.2687
X11.6937Y-8.6188
X11.9437Y-8.5187
X10.7562Y-6.3687
X11.0062Y-6.2687
X10.9437Y-8.6188
X11.1937Y-8.5187
X8.1312Y-7.1187
X8.3812Y-7.0187
X7.7562Y-6.3687
X8.0062Y-6.2687
X14.3187Y-7.8687
X14.5687Y-7.7687
X6.0687Y-7.8687
X6.3187Y-7.7687
X6.2562Y-6.3687
X6.5062Y-6.2687
X12.35Y-9.3688
X12.6Y-9.2687
X10.1937Y-8.6188
X10.4437Y-8.5187
X10.5687Y-7.8687
X10.8187Y-7.7687
X4.7562Y-6.3687
X5.0062Y-6.2687
X14.225Y-9.3688
X14.475Y-9.2687
X12.8187Y-7.8687
X13.0687Y-7.7687
X8.3187Y-7.8687
X8.5687Y-7.7687
X7.3812Y-7.1187
X7.6312Y-7.0187
X12.0687Y-7.8687
X12.3187Y-7.7687
X15.1625Y-7.4937
X15.4125Y-7.3937
X9.6312Y-7.1187
X9.8812Y-7.0187
X9.2562Y-6.3687
X9.5062Y-6.2687
X13.1937Y-8.6188
X13.4437Y-8.5187
X8.8812Y-7.1187
X9.1312Y-7.0187
X4.9437Y-7.1187
X5.1937Y-7.0187
X4.85Y-9.3688
X5.1Y-9.2687
X7.1937Y-8.6188
X7.4437Y-8.5187
X5.0375Y-7.8687
X5.2875Y-7.7687
X14.8812Y-6.3687
X15.1312Y-6.2687
X8.6937Y-8.6188
X8.9437Y-8.5187
X10.3812Y-7.1187
X10.6312Y-7.0187
X7.0062Y-6.3687
X7.2562Y-6.2687
X9.5375Y-9.3688
X9.7875Y-9.2687
X13.5687Y-7.8687
X13.8187Y-7.7687
X9.8187Y-7.8687
X10.0687Y-7.7687
X5.8812Y-7.1187
X6.1312Y-7.0187
X5.7875Y-9.3688
X6.0375Y-9.2687
X7.9437Y-8.6188
X8.1937Y-8.5187
X7.5687Y-7.8687
X7.8187Y-7.7687
X13.7562Y-6.3687
X14.0062Y-6.2687
X4.85Y-8.6188
X5.1Y-8.5187
X13.3812Y-7.1187
X13.6312Y-7.0187
T2
G00X5.1112Y-6.0507
M15
G01X5.1112Y-6.0743
M16
G05
G00X5.1112Y-6.2054
M15
G01X5.1112Y-6.2487
M16
G05
G00X5.4513Y-6.0507
M15
G01X5.4513Y-6.0743
M16
G05
G00X5.4513Y-6.2054
M15
G01X5.4513Y-6.2487
M16
G05
T0
M30
