M48
; DRILL file {KiCad (5.1.4)-1} date 30/08/2021 13:20:45
; FORMAT={-:-/ absolute / inch / decimal}
; #@! TF.CreationDate,2021-08-30T13:20:45+02:00
; #@! TF.GenerationSoftware,Kicad,Pcbnew,(5.1.4)-1
; #@! TF.FileFunction,NonPlated,1,2,NPTH
FMAT,2
INCH
T1C0.0276
T2C0.0689
T3C0.1200
T4C0.1570
%
G90
G05
T1
X5.1675Y-6.2062
X5.395Y-6.2062
T2
X7.1437Y-8.7188
X7.5438Y-8.7188
X4.9875Y-7.9688
X5.3875Y-7.9688
X14.8312Y-6.4688
X15.2312Y-6.4688
X8.6437Y-8.7188
X9.0437Y-8.7188
X10.3312Y-7.2188
X10.7312Y-7.2188
X6.9562Y-6.4688
X7.3563Y-6.4688
X9.4875Y-9.4688
X9.8875Y-9.4688
X13.5187Y-7.9688
X13.9187Y-7.9688
X9.7687Y-7.9688
X10.1687Y-7.9688
X5.8312Y-7.2188
X6.2313Y-7.2188
X5.7375Y-9.4688
X6.1375Y-9.4688
X7.8937Y-8.7188
X8.2937Y-8.7188
X7.5187Y-7.9688
X7.9188Y-7.9688
X13.7062Y-6.4688
X14.1062Y-6.4688
X4.8Y-8.7188
X5.2Y-8.7188
X13.3312Y-7.2188
X13.7312Y-7.2188
X9.9562Y-6.4688
X10.3562Y-6.4688
X14.55Y-8.7188
X14.95Y-8.7188
X11.0812Y-7.2188
X11.4812Y-7.2188
X8.4562Y-6.4688
X8.8562Y-6.4688
X9.3937Y-8.7188
X9.7937Y-8.7188
X14.0812Y-7.2188
X14.4812Y-7.2188
X12.2062Y-6.4688
X12.6062Y-6.4688
X15.1125Y-9.4688
X15.5125Y-9.4688
X6.3937Y-8.7188
X6.7938Y-8.7188
X12.5812Y-7.2188
X12.9812Y-7.2188
X5.4562Y-6.4688
X5.8563Y-6.4688
X6.675Y-9.4688
X7.075Y-9.4688
X12.3937Y-8.7188
X12.7937Y-8.7188
X9.0187Y-7.9688
X9.4187Y-7.9688
X6.5812Y-7.2188
X6.9813Y-7.2188
X13.2375Y-9.4688
X13.6375Y-9.4688
X5.6437Y-8.7188
X6.0438Y-8.7188
X6.7687Y-7.9688
X7.1688Y-7.9688
X11.4562Y-6.4688
X11.8562Y-6.4688
X11.2687Y-7.9688
X11.6687Y-7.9688
X11.8312Y-7.2188
X12.2312Y-7.2188
X12.9562Y-6.4688
X13.3562Y-6.4688
X11.6437Y-8.7188
X12.0437Y-8.7188
X10.7062Y-6.4688
X11.1062Y-6.4688
X10.8937Y-8.7188
X11.2937Y-8.7188
X8.0812Y-7.2188
X8.4812Y-7.2188
X7.7062Y-6.4688
X8.1062Y-6.4688
X14.2687Y-7.9688
X14.6687Y-7.9688
X6.0187Y-7.9688
X6.4188Y-7.9688
X6.2062Y-6.4688
X6.6063Y-6.4688
X12.3Y-9.4688
X12.7Y-9.4688
X10.1437Y-8.7188
X10.5437Y-8.7188
X10.5187Y-7.9688
X10.9187Y-7.9688
X4.7062Y-6.4688
X5.1063Y-6.4688
X14.175Y-9.4688
X14.575Y-9.4688
X12.7687Y-7.9688
X13.1687Y-7.9688
X8.2687Y-7.9688
X8.6687Y-7.9688
X7.3312Y-7.2188
X7.7313Y-7.2188
X12.0187Y-7.9688
X12.4187Y-7.9688
X15.1125Y-7.5938
X15.5125Y-7.5938
X9.5812Y-7.2188
X9.9812Y-7.2188
X9.2062Y-6.4688
X9.6062Y-6.4688
X13.1437Y-8.7188
X13.5437Y-8.7188
X8.8312Y-7.2188
X9.2312Y-7.2188
X4.8937Y-7.2188
X5.2938Y-7.2188
X4.8Y-9.4688
X5.2Y-9.4688
T3
X15.0375Y-7.1238
X15.0375Y-8.0638
X14.5612Y-6.1937
X15.5012Y-6.1937
X7.719Y-9.1937
X11.656Y-9.1937
X14.28Y-8.4437
X15.22Y-8.4437
T4
X10.1562Y-6.4688
X14.28Y-9.0437
X14.75Y-8.7188
X15.22Y-9.0437
X11.2812Y-7.2188
X8.6562Y-6.4688
X9.5938Y-8.7188
X14.2812Y-7.2188
X12.4062Y-6.4688
X15.3125Y-9.4688
X6.5938Y-8.7188
X12.7812Y-7.2188
X5.6562Y-6.4688
X6.875Y-9.4688
X12.5938Y-8.7188
X9.2188Y-7.9688
X6.7812Y-7.2188
X13.4375Y-9.4688
X5.8438Y-8.7188
X6.9688Y-7.9688
X11.6562Y-6.4688
X11.4688Y-7.9688
X12.0312Y-7.2188
X13.1562Y-6.4688
X11.8438Y-8.7188
X10.9062Y-6.4688
X11.0938Y-8.7188
X8.2812Y-7.2188
X7.9062Y-6.4688
X14.4688Y-7.9688
X6.2188Y-7.9688
X6.4062Y-6.4688
X12.5Y-9.4688
X10.3438Y-8.7188
X10.7188Y-7.9688
X4.9062Y-6.4688
X14.375Y-9.4688
X12.9688Y-7.9688
X8.4688Y-7.9688
X7.5312Y-7.2188
X12.2188Y-7.9688
X15.3125Y-7.5938
X15.6375Y-7.1238
X15.6375Y-8.0638
X9.7812Y-7.2188
X9.4062Y-6.4688
X13.3438Y-8.7188
X9.0312Y-7.2188
X5.0938Y-7.2188
X5.0Y-9.4688
X7.3438Y-8.7188
X5.1875Y-7.9688
X14.5612Y-6.7938
X15.0312Y-6.4688
X15.5012Y-6.7938
X8.8438Y-8.7188
X10.5312Y-7.2188
X7.1562Y-6.4688
X7.719Y-9.7937
X9.6875Y-9.4688
X11.656Y-9.7937
X13.7188Y-7.9688
X9.9688Y-7.9688
X6.0312Y-7.2188
X5.9375Y-9.4688
X8.0938Y-8.7188
X7.7188Y-7.9688
X13.9062Y-6.4688
X5.0Y-8.7188
X13.5312Y-7.2188
T0
M30
